<svg xmlns="http://www.w3.org/2000/svg" viewBox="0 0 64 64"><title>Artboard-33</title><g id="Investment_cashflow" data-name="Investment cashflow"><path d="M35,34.5A1.5,1.5,0,0,0,33.5,33H33v3h.5A1.5,1.5,0,0,0,35,34.5Z" style="fill:#232328"/><path d="M30.5,31H31V28h-.5a1.5,1.5,0,0,0,0,3Z" style="fill:#232328"/><path d="M12,28.94V42H45.06A8.023,8.023,0,0,1,52,35.06V22H18.94A8.023,8.023,0,0,1,12,28.94ZM30.5,26H31V25a1,1,0,0,1,2,0v1h2a1,1,0,0,1,0,2H33v3h.5a3.5,3.5,0,0,1,0,7H33v1a1,1,0,0,1-2,0V38H29a1,1,0,0,1,0-2h2V33h-.5a3.5,3.5,0,0,1,0-7Z" style="fill:#232328"/><path d="M13,55H10V28a1,1,0,0,1,1-1,6,6,0,0,0,6-6,1,1,0,0,1,1-1H52V16H5a1,1,0,0,0-1,1V55H1a1,1,0,0,0-.91.58,1.017,1.017,0,0,0,.15,1.07l6,7a1,1,0,0,0,1.52,0l6-7a1.017,1.017,0,0,0,.15-1.07A1,1,0,0,0,13,55Z" style="fill:#232328"/><path d="M63.76,7.35l-6-7a1.04,1.04,0,0,0-1.52,0l-6,7a1.017,1.017,0,0,0-.15,1.07A1,1,0,0,0,51,9h3V36a1,1,0,0,1-1,1,6,6,0,0,0-6,6,1,1,0,0,1-1,1H12v4H59a1,1,0,0,0,1-1V9h3a1,1,0,0,0,.91-.58A1.017,1.017,0,0,0,63.76,7.35Z" style="fill:#232328"/></g></svg>